# AST/ASF file generated using VICON BodyLanguage
# -----------------------------------------------
:version 1.10
:name VICON
:units
  mass 1.0
  length 0.45
  angle deg
:documentation
   .ast/.asf automatically generated from VICON data using
   VICON BodyBuilder and BodyLanguage model FoxedUp or BRILLIANT.MOD
:root
   order TX TY TZ RX RY RZ
   axis XYZ
   position 0 0 0  
   orientation 0 0 0 
:bonedata
  begin
     id 1 
     name lhipjoint
     direction 0.653368 -0.678499 0.335782 
     length 2.51848 
     axis 0 0 0  XYZ
  end
  begin
     id 2 
     name lfemur
     direction 0.34202 -0.939693 0  
     length 6.57749  
     axis 0 0 20  XYZ
    dof rx ry rz
    limits (-160.0 20.0)
           (-70.0 70.0)
           (-60.0 70.0)
  end
  begin
     id 3 
     name ltibia
     direction 0.34202 -0.939693 0   
     length 7.94618   
     axis 0 0 20   XYZ
    dof rx
    limits (-10.0 170.0)
  end
  begin
     id 4 
     name lfoot
     direction 0.0811271 -0.222895 0.971461   
     length 2.31339   
     axis -90 7.62852e-016 20   XYZ
    dof rx rz
    limits (-45.0 90.0)
           (-70.0 20.0)
  end
  begin
     id 5 
     name ltoes
     direction 1.53568e-011 -4.21885e-011 1   
     length 1.15935   
     axis -90 7.62852e-016 20   XYZ
    dof rx
    limits (-90.0 20.0)
  end
  begin
     id 6 
     name rhipjoint
     direction -0.640058 -0.688614 0.340788   
     length 2.48149  
     axis 0 0 0  XYZ 
  end
  begin
     id 7 
     name rfemur
     direction -0.34202 -0.939693 0   
     length 6.57875   
     axis 0 0 -20   XYZ
    dof rx ry rz
    limits (-160.0 20.0)
           (-70.0 70.0)
           (-70.0 60.0)
  end
  begin
     id 8 
     name rtibia
     direction -0.34202 -0.939693 0   
     length 7.977   
     axis 0 0 -20   XYZ
    dof rx
    limits (-10.0 170.0)
 end
 begin
     id 9 
     name rfoot
     direction -0.0979793 -0.269196 0.958089   
     length 2.19857  
     axis -90 -7.62852e-016 -20   XYZ
    dof rx rz
    limits (-45.0 90.0)
           (-20.0 70.0)
  end
  begin
     id 10 
     name rtoes
     direction -1.53556e-011 -4.21868e-011 1   
     length 1.09838   
     axis -90 -7.62852e-016 -20   XYZ
    dof rx
    limits (-90.0 20.0)
  end
  begin
     id 11 
     name lowerback
     direction 0.0149039 0.998517 -0.0523597   
     length 2.10809   
     axis 0 0 0   XYZ
    dof rx ry rz
    limits (-20.0 45.0)
           (-30.0 30.0)
           (-30.0 30.0)
  end
  begin
     id 12 
     name upperback
     direction -0.00882659 0.999418 -0.0329624   
     length 2.1102   
     axis 0 0 0   XYZ
    dof rx ry rz
    limits (-20.0 45.0)
           (-30.0 30.0)
           (-30.0 30.0)
  end
  begin
     id 13 
     name thorax
     direction -0.0165585 0.999826 -0.0085833   
     length 2.11039   
     axis 0 0 0   XYZ
    dof rx ry rz
    limits (-20.0 45.0)
           (-30.0 30.0)
           (-30.0 30.0)
  end
  begin
     id 14 
     name lowerneck
     direction -0.0130877 0.999911 0.00260353   
     length 1.73253   
     axis 0 0 0   XYZ
    dof rx ry rz
    limits (-20.0 45.0)
           (-30.0 30.0)
           (-30.0 30.0)
  end
  begin
     id 15 
     name upperneck
     direction -0.0348454 0.928205 -0.370435   
     length 1.66692   
     axis 0 0 0   XYZ
    dof rx ry rz
    limits (-20.0 45.0)
           (-30.0 30.0)
           (-30.0 30.0)
  end
  begin
     id 16
     name head
     direction -0.00807754 0.992494 -0.122026  
     length 1.72765  
     axis 0 0 0   XYZ
    dof rx ry rz
    limits (-20.0 45.0)
           (-30.0 30.0)
           (-30.0 30.0)
  end
  begin
     id 17 
     name lclavicle
     direction 0.987582 0.144023 0.0627671  
     length 3.49235  
     axis 0 0 0   XYZ
    dof ry rz
    limits (-20.0 10.0)
           (0.0 20.0)
  end
  begin
     id 18 
     name lhumerus
     direction 1 -4.48958e-011 -1.45183e-018   
     length 5.41917   
     axis 180 -30 -90   XYZ
    dof rx ry rz
    limits (-60.0 90.0)
           (-90.0 90.0)
           (-90.0 90.0)
  end
  begin
     id 19
     name lradius
     direction 1 -4.48999e-011 5.75106e-027   
     length 2.44373   
     axis 180 -30 -90   XYZ
    dof rx
    limits (-10.0 170.0)
  end
  begin
     id 20
     name lwrist
     direction 1 -4.48987e-011 1.53461e-026   
     length 1.22186   
     axis -1.09697e-014 90 90   XYZ
    dof ry
    limits (-180.0 0.0)
 end
  begin
     id 21 
     name lhand
     direction 1 -4.48881e-011 3.06923e-026   
     length 0.727502   
     axis -1.95843e-014 90 90   XYZ
    dof rx rz
    limits (-90.0 90.0)
           (-45.0 45.0)
  end
  begin
     id 22 
     name lfingers
     direction 1 -4.48907e-011 6.13845e-026   
     length 0.586531   
     axis -3.91686e-014 90 90   XYZ
    dof rx
    limits (0.0 90.0)
  end
  begin
     id 23
     name lthumb
     direction 0.707107 -6.3487e-011 0.707107   
     length 0.842145   
     axis -90 45 2.85299e-015   XYZ
    dof rx rz
    limits (-45.0 45.0)
           (-45.0 45.0)
  end
  begin
     id 24 
     name rclavicle
     direction -0.980998 0.169556 0.0943023   
     length 3.29272  
     axis 0 0 0   XYZ 
    dof ry rz
    limits (-10.0 20.0)
           (-20.0 0.0)
  end
  begin
     id 25 
     name rhumerus
     direction -1 -1.83355e-005 2.45537e-005  
     length 5.58976   
     axis 180 30 90   XYZ
    dof rx ry rz
    limits (-90.0 60.0)
           (-90.0 90.0)
           (-90.0 90.0)
  end
  begin
     id 26 
     name rradius
     direction -1 -4.48967e-011 5.97228e-027   
     length 2.4806   
     axis 180 30 90   XYZ
    dof rx
    limits (-10.0 170.0)
  end
  begin
     id 27 
     name rwrist
     direction -1 -4.48963e-011 1.53461e-026   
     length 1.2403   
     axis -1.09697e-014 -90 -90   XYZ
    dof ry
    limits (-180.0 0.0)
  end
  begin
     id 28
     name rhand
     direction -1 -4.48881e-011 3.06923e-026   
     length 0.816009   
     axis -1.95843e-014 -90 -90   XYZ
    dof rx rz
    limits (-90.0 90.0)
           (-45.0 45.0)
  end
  begin
     id 29
     name rfingers
     direction -1 -4.49018e-011 6.13845e-026   
     length 0.657887   
     axis -3.91686e-014 -90 -90   XYZ
    dof rx
    limits (0.0 90.0)
  end
  begin
     id 30
     name rthumb
     direction -0.707107 -6.34872e-011 0.707107   
     length 0.944599   
     axis -90 -45 -2.85299e-015   XYZ
    dof rx rz
    limits (-45.0 45.0)
           (-45.0 45.0)
  end
:hierarchy
  begin
    root lhipjoint rhipjoint lowerback
    lhipjoint lfemur
    lfemur ltibia
    ltibia lfoot
    lfoot ltoes
    rhipjoint rfemur
    rfemur rtibia
    rtibia rfoot
    rfoot rtoes
    lowerback upperback
    upperback thorax
    thorax lowerneck lclavicle rclavicle
    lowerneck upperneck
    upperneck head
    lclavicle lhumerus
    lhumerus lradius
    lradius lwrist
    lwrist lhand lthumb
    lhand lfingers
    rclavicle rhumerus
    rhumerus rradius
    rradius rwrist
    rwrist rhand rthumb
    rhand rfingers
  end

#!OML:ASF F:\VICON\USERDATA\INSTALL\rory3\rory3.ASF
:FULLY-SPECIFIED
:DEGREES
26
root 0.000815049 16.5115 -9.60903 30.4139 -37.504 -2.2605
lowerback -16.6303 2.90884 -6.70415
upperback -9.91755 4.54522 -0.769976
thorax -1.8026 2.49387 3.59596
lowerneck -12.495 5.26878 3.46363
upperneck 32.1264 5.59407 2.95053
head 12.7883 3.19555 1.32756
rclavicle -3.57688e-014 6.24184e-014
rhumerus -76.2281 38.6331 -126.849
rradius 42.7679
rwrist -35.6302
rhand 25.0257 -0.57821
rfingers 7.12502
rthumb 49.1847 -22.2187
lclavicle -3.57688e-014 6.24184e-014
lhumerus -77.333 -46.3273 126.975
lradius 51.7716
lwrist 27.3581
lhand 24.1925 22.7091
lfingers 7.12502
lthumb 48.4188 44.7241
rfemur -24.0766 -7.08333 29.0001
rtibia 45.7099
rfoot 27.4418 -28.0686
rtoes 18.9818
lfemur -49.7481 4.10089 -33.7571
ltibia 38.338
lfoot -46.0416 28.2855
ltoes 24.919
27
root -0.00656184 16.51 -9.60581 30.563 -37.6749 -2.49645
lowerback -16.5109 2.97813 -6.66343
upperback -9.92832 4.62223 -0.802112
thorax -1.8778 2.53267 3.54072
lowerneck -12.6365 5.33015 3.60292
upperneck 32.0963 5.6235 3.00463
head 12.8108 3.23227 1.33349
rclavicle 3.0178e-014 -2.78299e-014
rhumerus -76.4126 38.8073 -127.267
rradius 42.7898
rwrist -35.5209
rhand 24.9408 0.238849
rfingers 7.12502
rthumb 49.1068 -21.4405
lclavicle 3.0178e-014 -2.78299e-014
lhumerus -77.9488 -46.7468 127.307
lradius 52.3634
lwrist 27.518
lhand 24.9577 22.7787
lfingers 7.12502
lthumb 49.1223 44.4504
rfemur -23.8764 -6.59142 29.1035
rtibia 45.5503
rfoot 25.9051 -29.5493
rtoes 22.3635
lfemur -49.8267 4.52241 -33.7275
ltibia 38.4036
lfoot -45.7414 28.2986
ltoes 24.4854
28
root -0.0135623 16.5035 -9.60197 30.4897 -37.9217 -2.56082
lowerback -16.3132 3.02138 -6.77592
upperback -9.9141 4.68121 -0.853105
thorax -1.97857 2.56919 3.54363
lowerneck -12.6528 5.37878 3.77951
upperneck 32.0163 5.65324 2.98609
head 12.7901 3.26392 1.29938
rclavicle 3.10725e-014 -4.37326e-015
rhumerus -76.4974 38.9491 -127.582
rradius 42.7914
rwrist -35.4817
rhand 24.8009 0.390856
rfingers 7.12502
rthumb 48.9783 -21.3523
lclavicle 3.10725e-014 -4.37326e-015
lhumerus -78.7207 -47.1745 127.834
lradius 52.96
lwrist 27.7831
lhand 25.4971 22.7683
lfingers 7.12502
lthumb 49.6171 44.1898
rfemur -23.6106 -6.20696 29.0292
rtibia 45.446
rfoot 25.0921 -30.0991
rtoes 23.7549
lfemur -49.8654 5.92959 -34.3927
ltibia 38.4836
lfoot -44.5913 27.7625
ltoes 23.9808
29
root -0.0215681 16.509 -9.59396 30.4462 -38.0299 -2.61678
lowerback -16.1362 3.01365 -6.84149
upperback -9.92062 4.66637 -0.89397
thorax -2.07912 2.56696 3.5226
lowerneck -12.5237 5.43295 3.96072
upperneck 31.8478 5.69159 2.98577
head 12.7015 3.30216 1.26467
rclavicle -5.6927e-014 5.725e-014
rhumerus -76.4347 39.0495 -127.715
rradius 42.7473
rwrist -35.3221
rhand 24.9693 0.0509098
rfingers 7.12502
rthumb 49.133 -21.6154
lclavicle -5.6927e-014 5.725e-014
lhumerus -79.3511 -47.496 128.178
lradius 53.5068
lwrist 28.1007
lhand 25.2876 22.542
lfingers 7.12502
lthumb 49.425 44.0615
rfemur -23.3259 -5.80426 29.0163
rtibia 45.2471
rfoot 25.0092 -30.0371
rtoes 22.8425
lfemur -49.664 5.02214 -33.8143
ltibia 38.5383
lfoot -45.7449 28.0921
ltoes 24.9979
30
root -0.0300394 16.5065 -9.58036 30.6044 -38.0742 -2.74366
lowerback -16.1733 3.01731 -6.78712
upperback -9.99244 4.66095 -0.930296
thorax -2.12839 2.56276 3.45279
lowerneck -12.3775 5.50858 3.91505
upperneck 31.8565 5.74916 3.20336
head 12.6649 3.35003 1.35828
rclavicle -4.84165e-014 -2.26615e-014
rhumerus -76.3207 38.9437 -127.63
rradius 42.6694
rwrist -35.0628
rhand 25.1822 0.0699574
rfingers 7.12502
rthumb 49.3284 -21.4984
lclavicle -4.84165e-014 -2.26615e-014
lhumerus -79.802 -47.668 128.253
lradius 54.0282
lwrist 28.3789
lhand 24.7835 22.2611
lfingers 7.12502
lthumb 48.9623 44.0121
rfemur -23.1762 -5.47642 29.0757
rtibia 45.0388
rfoot 24.7374 -30.2378
rtoes 22.4996
lfemur -49.858 6.28197 -34.3865
ltibia 38.612
lfoot -44.5708 27.548
ltoes 24.2186
31
root -0.0430386 16.5095 -9.56351 30.7613 -38.1436 -2.86697
lowerback -16.268 3.01069 -6.77569
upperback -10.0776 4.65011 -0.933312
thorax -2.16925 2.55861 3.4443
lowerneck -12.1311 5.58287 3.75078
upperneck 31.9151 5.81255 3.50226
head 12.6188 3.39658 1.50079
rclavicle -2.96935e-014 -5.28767e-014
rhumerus -76.2972 38.7757 -127.558
rradius 42.5141
rwrist -34.8242
rhand 25.5564 0.0113544
rfingers 7.12502
rthumb 49.6715 -21.3822
lclavicle -2.96935e-014 -5.28767e-014
lhumerus -79.555 -47.4862 127.601
lradius 54.3123
lwrist 28.3559
lhand 25.0089 21.9683
lfingers 7.12502
lthumb 49.1693 43.6165
rfemur -22.9521 -5.18113 29.0884
rtibia 44.7381
rfoot 24.4965 -30.2881
rtoes 22.4124
lfemur -49.7638 5.71493 -33.9627
ltibia 38.6191
lfoot -45.3777 27.5292
ltoes 24.9706
32
root -0.0550281 16.5079 -9.55179 30.9247 -38.1369 -2.98807
lowerback -16.3991 2.96773 -6.8097
upperback -10.0933 4.60515 -0.913072
thorax -2.11866 2.53634 3.48709
lowerneck -11.9644 5.62134 3.65795
upperneck 31.8712 5.84433 3.6739
head 12.5548 3.4212 1.57772
rclavicle -4.33723e-014 1.98785e-015
rhumerus -76.0492 38.7268 -127.359
rradius 42.2464
rwrist -34.5637
rhand 26.1162 -0.573644
rfingers 7.12502
rthumb 50.1839 -21.6993
lclavicle -4.33723e-014 1.98785e-015
lhumerus -78.9414 -47.2978 126.598
lradius 54.5473
lwrist 28.4011
lhand 25.9355 22.0554
lfingers 7.12502
lthumb 50.0187 43.2683
rfemur -22.752 -4.83483 29.1271
rtibia 44.4273
rfoot 24.3746 -30.1873
rtoes 21.9223
lfemur -49.8248 5.95255 -33.9534
ltibia 38.6438
lfoot -45.2698 27.172
ltoes 25.2089
33
root -0.0678997 16.509 -9.54438 31.0919 -38.1284 -3.04646
lowerback -16.4433 2.9468 -6.94853
upperback -10.1843 4.59226 -0.923596
thorax -2.20696 2.5404 3.5496
lowerneck -12.0196 5.65499 3.59548
upperneck 32.0695 5.83019 3.89718
head 12.6379 3.43601 1.68015
rclavicle 9.37891e-014 2.38542e-014
rhumerus -75.873 38.5748 -127.247
rradius 41.8639
rwrist -34.4086
rhand 26.2893 -0.874762
rfingers 7.12502
rthumb 50.3422 -21.916
lclavicle 9.37891e-014 2.38542e-014
lhumerus -79.0132 -47.2687 126.377
lradius 54.7624
lwrist 28.9148
lhand 25.7608 22.0558
lfingers 7.12502
lthumb 49.8588 43.3524
rfemur -22.5908 -4.37865 29.1064
rtibia 44.0894
rfoot 23.8105 -30.6334
rtoes 22.559
lfemur -49.9184 6.02631 -33.9158
ltibia 38.6204
lfoot -45.0097 27.0703
ltoes 25.5583
34
root -0.0801809 16.5137 -9.53185 31.1776 -38.1138 -3.02328
lowerback -16.3152 2.87432 -7.22207
upperback -10.368 4.50937 -0.852527
thorax -2.50006 2.52783 3.74803
lowerneck -12.0897 5.72807 3.61229
upperneck 32.3111 5.90191 3.96684
head 12.7515 3.4787 1.72603
rclavicle 8.44338e-014 5.56597e-015
rhumerus -75.8791 38.3391 -127.024
rradius 41.4365
rwrist -34.1683
rhand 26.5425 -0.672353
rfingers 7.12502
rthumb 50.5735 -21.5887
lclavicle 8.44338e-014 5.56597e-015
lhumerus -79.0065 -46.9914 126.179
lradius 54.8877
lwrist 29.5179
lhand 25.5414 22.079
lfingers 7.12502
lthumb 49.6577 43.4796
rfemur -22.3839 -4.14952 28.9747
rtibia 43.7633
rfoot 24.5289 -30.1519
rtoes 20.6693
lfemur -49.906 5.81809 -33.8338
ltibia 38.5926
lfoot -45.0107 27.2274
ltoes 25.3819
35
root -0.0927544 16.5172 -9.51263 31.3623 -38.0582 -3.11856
lowerback -16.2762 2.80205 -7.42799
upperback -10.5442 4.42471 -0.722513
thorax -2.73684 2.51201 3.97812
lowerneck -12.1291 5.77743 3.69761
upperneck 32.4691 5.97047 3.89637
head 12.8326 3.51012 1.7025
rclavicle -3.11719e-014 3.1408e-014
rhumerus -75.606 37.9145 -126.33
rradius 40.885
rwrist -33.6118
rhand 26.987 -0.31926
rfingers 7.12502
rthumb 50.9789 -21.0124
lclavicle -3.11719e-014 3.1408e-014
lhumerus -78.5927 -46.5974 125.673
lradius 54.8392
lwrist 29.9141
lhand 25.7798 22.2155
lfingers 7.12502
lthumb 49.8761 43.5031
rfemur -22.1525 -3.88432 28.8784
rtibia 43.45
rfoot 24.9056 -29.8962
rtoes 19.6749
lfemur -49.8916 5.57501 -33.6284
ltibia 38.5662
lfoot -45.2774 27.1131
ltoes 25.7655
36
root -0.104304 16.5173 -9.4924 31.5134 -37.9233 -3.19499
lowerback -16.391 2.76628 -7.55627
upperback -10.6216 4.39783 -0.645884
thorax -2.77924 2.51123 4.13082
lowerneck -12.1554 5.77378 3.79201
upperneck 32.5759 5.95644 3.83972
head 12.8903 3.50824 1.66842
rclavicle 2.69602e-015 3.89618e-014
rhumerus -75.034 37.3969 -125.436
rradius 40.2591
rwrist -33.2233
rhand 26.8181 -0.00662986
rfingers 7.12502
rthumb 50.825 -20.7852
lclavicle 2.69602e-015 3.89618e-014
lhumerus -77.9527 -46.2557 124.93
lradius 54.7518
lwrist 30.0646
lhand 26.0169 22.3905
lfingers 7.12502
lthumb 50.0931 43.5642
rfemur -21.917 -3.4904 28.7625
rtibia 43.196
rfoot 23.8602 -30.4322
rtoes 21.6816
lfemur -49.8521 5.19739 -33.335
ltibia 38.5444
lfoot -45.6529 26.9043
ltoes 26.3309
37
root -0.117667 16.5143 -9.48602 31.4748 -37.8567 -3.33106
lowerback -16.3286 2.77291 -7.66943
upperback -10.5686 4.42132 -0.613771
thorax -2.77126 2.52979 4.2284
lowerneck -12.3512 5.74184 3.9138
upperneck 32.7116 5.84947 3.88528
head 12.9949 3.48191 1.6633
rclavicle 4.02663e-014 -1.03368e-014
rhumerus -74.1556 36.9362 -124.431
rradius 39.7866
rwrist -33.1116
rhand 26.4645 -0.0357958
rfingers 7.12502
rthumb 50.5022 -20.9908
lclavicle 4.02663e-014 -1.03368e-014
lhumerus -77.0554 -46.0563 123.812
lradius 54.6495
lwrist 30.3594
lhand 26.4074 22.7122
lfingers 7.12502
lthumb 50.4501 43.6953
rfemur -21.4686 -2.76026 28.715
rtibia 42.9268
rfoot 22.5817 -30.6075
rtoes 23.3539
lfemur -49.6766 5.18641 -33.096
ltibia 38.5339
lfoot -45.7797 26.4461
ltoes 27.2865
38
root -0.130339 16.5094 -9.48163 31.378 -37.884 -3.22853
lowerback -16.3184 2.72403 -8.03285
upperback -10.5374 4.4049 -0.646492
thorax -2.77538 2.53916 4.3937
lowerneck -12.701 5.73648 4.13714
upperneck 32.9823 5.73617 3.94414
head 13.196 3.46715 1.65678
rclavicle -6.21202e-016 -3.97569e-014
rhumerus -73.2043 36.4795 -123.423
rradius 39.1888
rwrist -32.8226
rhand 26.484 0.0832522
rfingers 7.12502
rthumb 50.52 -20.8621
lclavicle -6.21202e-016 -3.97569e-014
lhumerus -76.1444 -45.9151 122.65
lradius 54.6125
lwrist 31.0821
lhand 27.1071 23.2758
lfingers 7.12502
lthumb 51.0883 43.9078
rfemur -21.1114 -1.84281 28.4327
rtibia 42.6403
rfoot 21.3298 -30.7562
rtoes 24.3873
lfemur -49.6789 5.8688 -33.5065
ltibia 38.546
lfoot -45.0603 25.8964
ltoes 27.3119
39
root -0.144966 16.5107 -9.45699 31.4 -37.8486 -3.25266
lowerback -16.4038 2.7082 -8.26557
upperback -10.5878 4.41762 -0.601159
thorax -2.81734 2.56252 4.57507
lowerneck -12.7332 5.69451 4.18563
upperneck 33.202 5.62351 4.03272
head 13.2976 3.43562 1.67622
rclavicle 1.13034e-013 3.45885e-014
rhumerus -72.4755 35.9237 -122.435
rradius 38.3721
rwrist -32.5251
rhand 26.9365 0.708576
rfingers 7.12502
rthumb 50.9329 -20.0102
lclavicle 1.13034e-013 3.45885e-014
lhumerus -75.2841 -45.5383 121.583
lradius 54.444
lwrist 31.4966
lhand 27.5096 23.8398
lfingers 7.12502
lthumb 51.4546 44.2639
rfemur -20.6629 -1.1233 28.1468
rtibia 42.2497
rfoot 21.4813 -30.4416
rtoes 22.9379
lfemur -49.5652 5.8257 -33.4426
ltibia 38.5543
lfoot -45.1156 25.8457
ltoes 27.0783
40
root -0.157431 16.5133 -9.42704 31.5677 -37.5859 -3.53316
lowerback -16.506 2.70326 -8.13661
upperback -10.6407 4.40039 -0.508021
thorax -2.81492 2.55208 4.60485
lowerneck -12.5303 5.67147 4.12811
upperneck 33.2887 5.55871 4.1945
head 13.283 3.42131 1.73444
rclavicle -1.42007e-014 -3.69739e-014
rhumerus -71.6464 35.232 -121.253
rradius 37.5502
rwrist -32.2719
rhand 27.4484 1.02328
rfingers 7.12502
rthumb 51.399 -19.4327
lclavicle -1.42007e-014 -3.69739e-014
lhumerus -74.2113 -44.9263 120.194
lradius 54.1174
lwrist 31.2512
lhand 27.8969 24.1179
lfingers 7.12502
lthumb 51.8066 44.3377
rfemur -20.1708 -0.453946 28.134
rtibia 41.7842
rfoot 22.0945 -29.8231
rtoes 20.4415
lfemur -49.4343 5.56004 -32.9992
ltibia 38.5715
lfoot -45.2826 25.8827
ltoes 26.8848
